FDS_states
version=1
nRows=4
nColumns=142
inDegrees=yes

# SIMM Motion File Header:
name FDS_states
datacolumns 142
datarows 4
otherdata 1
range 1.41886339658132870000 1.42192860193727030000
endheader
time	r_z	sternoclavicular_r2	sternoclavicular_r3	unrotscap_r3	unrotscap_r2	acromioclavicular_r2	acromioclavicular_r3	acromioclavicular_r1	unrothum_r1	unrothum_r3	unrothum_r2	elv_angle	shoulder_elv	shoulder1_r2	shoulder_rot	elbow_flexion	pro_sup	deviation	flexion	wrist_hand_r1	wrist_hand_r3	r_z_u	sternoclavicular_r2_u	sternoclavicular_r3_u	unrotscap_r3_u	unrotscap_r2_u	acromioclavicular_r2_u	acromioclavicular_r3_u	acromioclavicular_r1_u	unrothum_r1_u	unrothum_r3_u	unrothum_r2_u	elv_angle_u	shoulder_elv_u	shoulder1_r2_u	shoulder_rot_u	elbow_flexion_u	pro_sup_u	deviation_u	flexion_u	wrist_hand_r1_u	wrist_hand_r3_u	DELT1.activation	DELT1.fiber_length	DELT2.activation	DELT2.fiber_length	DELT3.activation	DELT3.fiber_length	SUPSP.activation	SUPSP.fiber_length	INFSP.activation	INFSP.fiber_length	SUBSC.activation	SUBSC.fiber_length	TMIN.activation	TMIN.fiber_length	TMAJ.activation	TMAJ.fiber_length	PECM1.activation	PECM2.activation	PECM2.fiber_length	PECM3.activation	PECM3.fiber_length	LAT1.activation	LAT1.fiber_length	LAT2.activation	LAT2.fiber_length	LAT3.activation	LAT3.fiber_length	CORB.activation	CORB.fiber_length	TRIlong.activation	TRIlong.fiber_length	TRIlat.activation	TRIlat.fiber_length	TRImed.activation	TRImed.fiber_length	ANC.activation	ANC.fiber_length	SUP.activation	SUP.fiber_length	BIClong.activation	BIClong.fiber_length	BICshort.activation	BICshort.fiber_length	BRA.activation	BRA.fiber_length	BRD.activation	BRD.fiber_length	ECRL.activation	ECRL.fiber_length	ECRB.activation	ECRB.fiber_length	ECU.activation	ECU.fiber_length	FCR.activation	FCR.fiber_length	FCU.activation	FCU.fiber_length	PL.activation	PL.fiber_length	PT.activation	PT.fiber_length	PQ.activation	PQ.fiber_length	FDSL.activation	FDSL.fiber_length	FDSR.activation	FDSR.fiber_length	FDSM.activation	FDSM.fiber_length	FDSI.activation	FDSI.fiber_length	FDPL.activation	FDPL.fiber_length	FDPR.activation	FDPR.fiber_length	FDPM.activation	FDPM.fiber_length	FDPI.activation	FDPI.fiber_length	EDCL.activation	EDCL.fiber_length	EDCR.activation	EDCR.fiber_length	EDCM.activation	EDCM.fiber_length	EDCI.activation	EDCI.fiber_length	EDM.activation	EDM.fiber_length	EIP.activation	EIP.fiber_length	EPL.activation	EPL.fiber_length	EPB.activation	EPB.fiber_length	FPL.activation	FPL.fiber_length	APL.activation	APL.fiber_length
      1.41886339658132870000	     10.00000027505223200000	     -9.31154924345078960000	      3.94393277833483810000	     -3.94393277833209280000	      9.31154924341077010000	     -1.88539931031041610000	     15.23713402486061200000	      6.84898687892647210000	     -6.84898687892536360000	    -15.23713402485968000000	      1.88539931031129560000	     60.15164419946596300000	     38.47738997207097400000	    -60.15164419946665200000	      4.66374832485619170000	     60.85641238370984500000	     22.50155517110298600000	      0.00000118187199107063	     -0.00000000002063731848	      0.00000160397929536380	     -0.00000000000020856431	     -0.00000000000001127348	     -9.15401914058769780000	      3.87721046173161450000	     -3.87721046172767550000	      9.15401914043505550000	     -1.85350266886761420000	     14.97935658855392800000	      6.73311769538817200000	     -6.73311769538622950000	    -14.97935658855276500000	      1.85350266886879740000	     44.62282285235562500000	     37.82644059231540000000	    -44.62282285235743000000	     19.07935124591388000000	    -94.95476224260359300000	    -11.38992094017033300000	      0.00000000002641548791	      0.00000000003724737163	     -0.00000000007037066716	      0.00000000006050881246	      0.10393541125814373000	      0.09892239894470517000	      0.24294977783472699000	      0.08638800839033049200	      0.02366717823660116600	      0.13645652545472681000	      0.07369420448668898000	      0.06591420982680916400	      0.13526361908636386000	      0.07614527336569806800	      0.02529495693203858600	      0.08051185797406995600	      0.02223111668073940500	      0.06678732822072139300	      0.06478977575139792400	      0.14370668278591756000	      0.02003111867728908600	      0.02003879254066796200	      0.10135630546911911000	      0.02004109585868216200	      0.08058647110362526800	      0.02154047557819749000	      0.18361206539491554000	      0.02255457281865498600	      0.15277970375175029000	      0.02096481124127825400	      0.21768343966972706000	      0.02001281639485398900	      0.06913553009104159200	      0.02219291077945082700	      0.17669750140466137000	      0.02003487228995993300	      0.09461965610692138500	      0.02003502299678231200	      0.08956040973134378500	      0.02410061146405433400	      0.01579683958678448600	      0.02000000000000000000	      0.03627445288164982100	      0.03612355222187022700	      0.13075706363153128000	      0.02000000000000000000	      0.14750182571832318000	      0.06077070346444653200	      0.07877387737744051500	      0.04059656759870981800	      0.16349468171343770000	      0.06405284030942143300	      0.07587066799328298600	      0.09410059212569421600	      0.05969721984942024500	      0.09998683104047220700	      0.06760781367090219800	      0.02000000000000000000	      0.05654615368176160700	      0.02000000000000000000	      0.04023601954827588800	      0.02000000000000000000	      0.05728432992914759400	      0.06077968106932211300	      0.04618361312029190000	      0.02609782989974971900	      0.02368695914489620700	      0.02203534614865289600	      0.04230108783502029000	      0.02000000000000000000	      0.06426492084976621900	      0.02000000000000000000	      0.07218781510728440600	      0.02000000000000000000	      0.08437623607612747300	      0.02000000000000000000	      0.07399937137360443300	      0.02000000000000000000	      0.07786280345994398000	      0.02000000000000000000	      0.07405179101528751300	      0.02000000000000000000	      0.07359121616595683300	      0.02202729028756936200	      0.07939864151097267300	      0.07903574662929052600	      0.06652243521805857600	      0.05966036995224956200	      0.07864045284168060000	      0.03420776645159728800	      0.07247398186007607300	      0.03652390440023557700	      0.07773425031867618700	      0.02663145516876269000	      0.06579207733745517900	      0.02203008307488408000	      0.06272433519744997900	      0.02000000000000000000	      0.06764417316961690600	      0.02000000000000000000	      0.05968006001958611800	      0.02000162482955699200	      0.07039141050748200200
      1.41976529817350180000	     10.00000027505223200000	     -9.31979304917532760000	      3.94742446535326910000	     -3.94742446535052020000	      9.31979304913516950000	     -1.88706851327770140000	     15.25062393608955700000	      6.85505050118340090000	     -6.85505050118229060000	    -15.25062393608862600000	      1.88706851327858180000	     60.19183357973135900000	     38.51145520863041600000	    -60.19183357973204800000	      4.68092182766502150000	     60.77087436966342400000	     22.49128166902283300000	      0.00000118187201500187	     -0.00000000002060374555	      0.00000160397923206389	     -0.00000000000015395353	     -0.00000000000001131552	     -9.12692586262235040000	      3.86573502791769920000	     -3.86573502791373210000	      9.12692586246770610000	     -1.84801683119886180000	     14.93502197819318900000	      6.71318959315138740000	     -6.71318959314946010000	    -14.93502197819201200000	      1.84801683120007600000	     44.49858256359350900000	     37.71448514916405500000	    -44.49858256359532000000	     19.00390112636703300000	    -94.72878564606394000000	    -11.39329116074236300000	      0.00000000002677935740	      0.00000000003767892354	     -0.00000000006995475075	      0.00000000006044676004	      0.10385809030457380000	      0.09889071544650431000	      0.24314611251775947000	      0.08638156582656521300	      0.02364716994887043600	      0.13647659082946037000	      0.07382311932944930800	      0.06591699799098664500	      0.13526922316903556000	      0.07614780226782791300	      0.02525523507197720300	      0.08051249936564368300	      0.02222835400671427700	      0.06679216921601474600	      0.06419117005524517500	      0.14372590577785246000	      0.02003074898398402400	      0.02003833167113347500	      0.10134911923801213000	      0.02004060762174487300	      0.08058807716344873500	      0.02152209732091520800	      0.18362735253676254000	      0.02252401007966385900	      0.15280216798760915000	      0.02095331925233938000	      0.21770922028450643000	      0.02001266414246757500	      0.06913054828830124400	      0.02216670128384699800	      0.17668168181609875000	      0.02003445799897547000	      0.09458864290814818200	      0.02003460691519010400	      0.08952946894052407600	      0.02410359097745676900	      0.01577907303778133100	      0.02000000000000000000	      0.03627314947839538300	      0.03623201234340744900	      0.13079606624403101000	      0.02000000000000000000	      0.14754976676122036000	      0.06085415605164207900	      0.07879884243583595800	      0.04067177981029501700	      0.16358202585891868000	      0.06409731831194209800	      0.07589987810369570900	      0.09403807806454063400	      0.05969831706324127400	      0.09997899835173090800	      0.06760004156344978600	      0.02000000000000000000	      0.05656523761740751800	      0.02000000000000000000	      0.04025102437642270200	      0.02000000000000000000	      0.05730512472033973800	      0.06087257942046033600	      0.04620157031510634100	      0.02609664783848705500	      0.02368831381534086300	      0.02203492386513938200	      0.04232000464119876200	      0.02000000000000000000	      0.06428117318696226200	      0.02000000000000000000	      0.07218816501305488900	      0.02000000000000000000	      0.08437664816918864800	      0.02000000000000000000	      0.07399959580138701400	      0.02000000000000000000	      0.07786304235986972500	      0.02000000000000000000	      0.07405210711128587500	      0.02000000000000000000	      0.07359158608479385300	      0.02202696425543187000	      0.07939528318695100700	      0.07902543015883159400	      0.06651744659596438300	      0.05964278709852698800	      0.07863587648226395800	      0.03420685093714120900	      0.07247026539755906100	      0.03652075634054308800	      0.07772818699860693800	      0.02663085398543848700	      0.06579204285932960200	      0.02202972367503009900	      0.06272404766851817600	      0.02000000000000000000	      0.06764417316961690600	      0.02000000000000000000	      0.05968006001958611800	      0.02000160552799535400	      0.07039141073973725900
      1.42066719976567500000	     10.00000027505223200000	     -9.32801244544650030000	      3.95090581367931830000	     -3.95090581367656620000	      9.32801244540620370000	     -1.88873277382720680000	     15.26407390443653300000	      6.86109616938978030000	     -6.86109616938866830000	    -15.26407390443560200000	      1.88873277382808840000	     60.23191086416631600000	     38.54541957990615900000	    -60.23191086416701300000	      4.69802769046751840000	     60.68554060252417800000	     22.48100634567934000000	      0.00000118187203933481	     -0.00000000002056931603	      0.00000160397916818857	     -0.00000000000009870388	     -0.00000000000001134074	     -9.09989652361011460000	      3.85428667562799630000	     -3.85428667562390050000	      9.09989652345652010000	     -1.84254393986816270000	     14.89079199558226600000	      6.69330852036804110000	     -6.69330852036611110000	    -14.89079199558110400000	      1.84254393986931040000	     44.37425715082533600000	     37.60279391598326300000	    -44.37425715082713400000	     18.92918849648847900000	    -94.50192108737468300000	    -11.39253825668332200000	      0.00000000002725766281	      0.00000000003846908211	     -0.00000000007210501383	      0.00000000006264536770	      0.10376410511444430000	      0.09885911465102614800	      0.24345386026108426000	      0.08637516934948562300	      0.02362740288100365400	      0.13649659565362901000	      0.07386321105833530700	      0.06591988283015964800	      0.13535368648047111000	      0.07615030048071763600	      0.02521599636703537900	      0.08051315594154098700	      0.02222562437751691300	      0.06679698230233904700	      0.06360144076087641300	      0.14374231239291391000	      0.02003038368305368200	      0.02003787627748405300	      0.10134195638221756000	      0.02004012518593650100	      0.08058968352073857300	      0.02150393925002125700	      0.18364259694420199000	      0.02249381555347117500	      0.15282457079854908000	      0.02094196450986334300	      0.21773493496541849000	      0.02001251369882772400	      0.06912557275192589300	      0.02214080692831741200	      0.17666586313370483000	      0.02003404863033932500	      0.09455768502754657900	      0.02003419577722524700	      0.08949858361243220900	      0.02411042230630203500	      0.01576134200328909900	      0.02000000000000000000	      0.03627184653310497300	      0.03633309407656037900	      0.13083532514092611000	      0.02000000000000000000	      0.14759753209139387000	      0.06089942473591872200	      0.07882379062290714700	      0.04077015794914470900	      0.16366910551884004000	      0.06409687615619826000	      0.07592910980983803800	      0.09399172881443407200	      0.05969943345532910400	      0.09996779167208411100	      0.06759226512118998700	      0.02000000000000000000	      0.05658427167162453900	      0.02000000000000000000	      0.04026597890491240300	      0.02000000000000000000	      0.05732585805053959400	      0.06096086850150225100	      0.04621958329447524400	      0.02609548006365426300	      0.02368966609578698100	      0.02203450662717362800	      0.04233886491369092500	      0.02000000000000000000	      0.06429738268064737200	      0.02000000000000000000	      0.07218851541690458900	      0.02000000000000000000	      0.08437706075110200400	      0.02000000000000000000	      0.07399982054024020800	      0.02000000000000000000	      0.07786328158697444800	      0.02000000000000000000	      0.07405242361866999600	      0.02000000000000000000	      0.07359195649793805200	      0.02202664211863347000	      0.07939191787643859500	      0.07901802124370113600	      0.06651245141361711300	      0.05962738525956030200	      0.07863130179493954500	      0.03420612919036782100	      0.07246654352314803300	      0.03651846653497007500	      0.07772212583999607600	      0.02663025748169948000	      0.06579200838811756500	      0.02202936856924946100	      0.06272375974518855400	      0.02000000000000000000	      0.06764417316961690600	      0.02000000000000000000	      0.05968006001958611100	      0.02000158645572050800	      0.07039141096923352800
      1.42192860193727030000	     10.00000027505223200000	     -9.33946726353165420000	      3.95575753398215960000	     -3.95575753397940220000	      9.33946726349116570000	     -1.89105214148049110000	     15.28281821795820200000	      6.86952160931535620000	     -6.86952160931424150000	    -15.28281821795726500000	      1.89105214148137390000	     60.28777491622404500000	     38.59275343284434000000	    -60.28777491622474800000	      4.72183972089674770000	     60.56653613175694800000	     22.46663863400617700000	      0.00000118187207363023	     -0.00000000002052255168	      0.00000160397907603743	     -0.00000000000001855268	     -0.00000000000001123491	     -9.06215100405218090000	      3.83829945503591220000	     -3.83829945503115380000	      9.06215100389989380000	     -1.83490123996086170000	     14.82902638329930600000	      6.66554530273111290000	     -6.66554530272919180000	    -14.82902638329810200000	      1.83490123996196770000	     44.20025133448300600000	     37.44682104426083000000	    -44.20025133448480400000	     18.82560159151559300000	    -94.18391141231002500000	    -11.38589235162875500000	      0.00000000002744390327	      0.00000000003733212514	     -0.00000000007412661301	      0.00000000006430509892	      0.10357439881736152000	      0.09881512408571893600	      0.24426141773035800000	      0.08636603569801200300	      0.02360015564325939100	      0.13652447326416201000	      0.07383615413677915900	      0.06592415422315756100	      0.13571237495990937000	      0.07615360253131950300	      0.02516191607128590700	      0.08051409856548785700	      0.02222186138675005100	      0.06680366803092321900	      0.06279123894389815300	      0.14376698597808968000	      0.02002988004058727300	      0.02003724842405513900	      0.10133197723379231000	      0.02003946004947320200	      0.08059193034556490200	      0.02147890760002970100	      0.18366384572469835000	      0.02245219448767660600	      0.15285580002641885000	      0.02092631081687994900	      0.21777078849515746000	      0.02001230628102743500	      0.06911862467237538100	      0.02210511233057823800	      0.17664374197923768000	      0.02003348423164417000	      0.09451448135381514100	      0.02003362893915402300	      0.08945548157933352900	      0.02413197032761334200	      0.01573659734978290900	      0.02000000000000000000	      0.03627002448756661000	      0.03647799356368512000	      0.13089045467279445000	      0.02000000000000000000	      0.14766404002519667000	      0.06089641096760822800	      0.07885876086007309600	      0.04099335267046801100	      0.16378977678988454000	      0.06405275402836667400	      0.07597022366561709300	      0.09397996152079816900	      0.05970097391156034500	      0.09994052001160680400	      0.06758139460744112800	      0.02000000000000000000	      0.05661080800639604900	      0.02000000000000000000	      0.04028680932865404100	      0.02000000000000000000	      0.05735475158871149200	      0.06109117313436183300	      0.04624480311925591200	      0.02609387044581424500	      0.02369155875193714900	      0.02203393142564091500	      0.04236514727730986100	      0.02000000000000000000	      0.06431998062592105000	      0.02000000000000000000	      0.07218900624151303200	      0.02000000000000000000	      0.08437763850674481800	      0.02000000000000000000	      0.07400013532629100300	      0.02000000000000000000	      0.07786361665956394200	      0.02000000000000000000	      0.07405286689738621600	      0.02000000000000000000	      0.07359247529668083700	      0.02202619802266586900	      0.07938719981357648900	      0.07901724299900642100	      0.06650544332967772700	      0.05961282000373304600	      0.07862489447988584000	      0.03420575631660473200	      0.07246132776131325400	      0.03651810226301036700	      0.07771364697794724800	      0.02662942645313367100	      0.06579196017620399200	      0.02202887902253751100	      0.06272335646858621900	      0.02000000000000000000	      0.06764417316961686400	      0.02000000000000000000	      0.05968006001958611100	      0.02000156016060562400	      0.07039141128564210800
